<mxfile host="app.diagrams.net" modified="2021-05-01T15:44:18.549Z" agent="5.0 (Macintosh; Intel Mac OS X 10_15_7) AppleWebKit/537.36 (KHTML, like Gecko) Chrome/90.0.4430.93 Safari/537.36" etag="0y4Yj5mJKHuXVfDVgEi4" version="14.5.10" type="github">
  <diagram id="KYHajy9hAzlmg0D7gsDp" name="Page-1">
    <mxGraphModel dx="1186" dy="689" grid="1" gridSize="10" guides="1" tooltips="1" connect="1" arrows="1" fold="1" page="1" pageScale="1" pageWidth="850" pageHeight="1100" math="0" shadow="0">
      <root>
        <mxCell id="0" />
        <mxCell id="1" parent="0" />
        <mxCell id="QSUdDy8CgD-3s1N1Uw83-9" value="Github" style="rounded=1;whiteSpace=wrap;html=1;labelBackgroundColor=#ffffff;fontSize=9;fontColor=#000000;arcSize=2;align=left;verticalAlign=top;" parent="1" vertex="1">
          <mxGeometry x="47" y="110" width="293" height="300" as="geometry" />
        </mxCell>
        <mxCell id="QSUdDy8CgD-3s1N1Uw83-1" value="EC2" style="points=[[0,0,0],[0.25,0,0],[0.5,0,0],[0.75,0,0],[1,0,0],[0,1,0],[0.25,1,0],[0.5,1,0],[0.75,1,0],[1,1,0],[0,0.25,0],[0,0.5,0],[0,0.75,0],[1,0.25,0],[1,0.5,0],[1,0.75,0]];outlineConnect=0;fontColor=#232F3E;gradientColor=#F78E04;gradientDirection=north;fillColor=#D05C17;strokeColor=#ffffff;dashed=0;verticalLabelPosition=bottom;verticalAlign=top;align=center;html=1;fontSize=12;fontStyle=0;aspect=fixed;shape=mxgraph.aws4.resourceIcon;resIcon=mxgraph.aws4.ec2;" parent="1" vertex="1">
          <mxGeometry x="530" y="280" width="78" height="78" as="geometry" />
        </mxCell>
        <mxCell id="QSUdDy8CgD-3s1N1Uw83-2" value="S3" style="points=[[0,0,0],[0.25,0,0],[0.5,0,0],[0.75,0,0],[1,0,0],[0,1,0],[0.25,1,0],[0.5,1,0],[0.75,1,0],[1,1,0],[0,0.25,0],[0,0.5,0],[0,0.75,0],[1,0.25,0],[1,0.5,0],[1,0.75,0]];outlineConnect=0;fontColor=#232F3E;gradientColor=#60A337;gradientDirection=north;fillColor=#277116;strokeColor=#ffffff;dashed=0;verticalLabelPosition=bottom;verticalAlign=top;align=center;html=1;fontSize=12;fontStyle=0;aspect=fixed;shape=mxgraph.aws4.resourceIcon;resIcon=mxgraph.aws4.s3;" parent="1" vertex="1">
          <mxGeometry x="410" y="110" width="78" height="78" as="geometry" />
        </mxCell>
        <mxCell id="QSUdDy8CgD-3s1N1Uw83-3" value="EC2RoleFetchS3" style="outlineConnect=0;fontColor=#232F3E;gradientColor=none;fillColor=#C7131F;strokeColor=none;dashed=0;verticalLabelPosition=bottom;verticalAlign=top;align=center;html=1;fontSize=12;fontStyle=0;aspect=fixed;pointerEvents=1;shape=mxgraph.aws4.role;" parent="1" vertex="1">
          <mxGeometry x="700" y="210" width="78" height="44" as="geometry" />
        </mxCell>
        <mxCell id="QSUdDy8CgD-3s1N1Uw83-4" value="&lt;em style=&quot;box-sizing: inherit; font-family: &amp;quot;ibm plex sans&amp;quot;, sans-serif; font-size: 10px;&quot;&gt;CodeDeployGroup&lt;/em&gt;" style="outlineConnect=0;gradientColor=none;fillColor=#C7131F;strokeColor=none;dashed=0;verticalLabelPosition=bottom;verticalAlign=top;align=center;html=1;fontSize=10;fontStyle=0;aspect=fixed;pointerEvents=1;shape=mxgraph.aws4.organizations_organizational_unit;labelBackgroundColor=#ffffff;" parent="1" vertex="1">
          <mxGeometry x="210" y="150" width="78" height="67" as="geometry" />
        </mxCell>
        <mxCell id="QSUdDy8CgD-3s1N1Uw83-5" value="&lt;span style=&quot;font-family: &amp;quot;ibm plex sans&amp;quot;, sans-serif; font-size: 9px;&quot;&gt;access key&lt;/span&gt;" style="outlineConnect=0;gradientColor=none;fillColor=#C7131F;strokeColor=none;dashed=0;verticalLabelPosition=bottom;verticalAlign=top;align=center;html=1;fontSize=9;fontStyle=0;aspect=fixed;pointerEvents=1;shape=mxgraph.aws4.organizations_account;labelBackgroundColor=#ffffff;" parent="1" vertex="1">
          <mxGeometry x="70" y="150" width="74" height="78" as="geometry" />
        </mxCell>
        <mxCell id="QSUdDy8CgD-3s1N1Uw83-6" value="&lt;span style=&quot;color: rgb(60, 60, 59); font-family: monospace, monospace; font-size: 9px;&quot;&gt;AmazonS3FullAccess&lt;br style=&quot;font-size: 9px;&quot;&gt;&lt;/span&gt;&lt;span style=&quot;color: rgb(60, 60, 59); font-family: monospace, monospace; font-size: 9px;&quot;&gt;AWSCodeDeployFullAccess&lt;/span&gt;&lt;span style=&quot;color: rgb(60, 60, 59); font-family: monospace, monospace; font-size: 9px;&quot;&gt;&lt;br style=&quot;font-size: 9px;&quot;&gt;&lt;/span&gt;" style="outlineConnect=0;fontColor=#232F3E;gradientColor=none;fillColor=#C7131F;strokeColor=none;dashed=0;verticalLabelPosition=bottom;verticalAlign=top;align=center;html=1;fontSize=9;fontStyle=0;aspect=fixed;pointerEvents=1;shape=mxgraph.aws4.permissions;labelBackgroundColor=#ffffff;" parent="1" vertex="1">
          <mxGeometry x="218" y="283" width="62" height="78" as="geometry" />
        </mxCell>
        <mxCell id="QSUdDy8CgD-3s1N1Uw83-8" value="&lt;span style=&quot;color: rgb(60 , 60 , 59) ; font-family: monospace , monospace ; font-size: 9px&quot;&gt;AmazonS3FullAccess&lt;/span&gt;&lt;span style=&quot;color: rgb(60 , 60 , 59) ; font-family: monospace , monospace ; font-size: 9px&quot;&gt;&lt;br style=&quot;font-size: 9px&quot;&gt;&lt;/span&gt;" style="outlineConnect=0;fontColor=#232F3E;gradientColor=none;fillColor=#C7131F;strokeColor=none;dashed=0;verticalLabelPosition=bottom;verticalAlign=top;align=center;html=1;fontSize=9;fontStyle=0;aspect=fixed;pointerEvents=1;shape=mxgraph.aws4.permissions;labelBackgroundColor=#ffffff;" parent="1" vertex="1">
          <mxGeometry x="708" y="312" width="62" height="78" as="geometry" />
        </mxCell>
        <mxCell id="QSUdDy8CgD-3s1N1Uw83-10" value="&lt;pre style=&quot;box-sizing: border-box; border-width: 0px; border-style: solid; border-color: rgb(229, 231, 235); font-size: 9px; margin-top: 2em; margin-bottom: 2em; overflow-x: auto; line-height: 1.77778; border-radius: 0.5rem; padding: 1.11111em 1.33333em;&quot;&gt;&lt;code class=&quot;lang-bash&quot; style=&quot;box-sizing: border-box; border-width: 0px; border-style: solid; border-color: rgb(229, 231, 235); font-family: inherit; font-size: 9px; border-radius: 0px; padding: 0px; background-image: initial; background-position: initial; background-size: initial; background-repeat: initial; background-attachment: initial; background-origin: initial; background-clip: initial; line-height: inherit;&quot;&gt;CodeDeployServiceRole&lt;/code&gt;&lt;/pre&gt;" style="outlineConnect=0;gradientColor=none;fillColor=#C7131F;strokeColor=none;dashed=0;verticalLabelPosition=bottom;verticalAlign=top;align=center;html=1;fontSize=9;fontStyle=0;aspect=fixed;pointerEvents=1;shape=mxgraph.aws4.role;labelBackgroundColor=none;" parent="1" vertex="1">
          <mxGeometry x="410" y="580" width="78" height="44" as="geometry" />
        </mxCell>
        <mxCell id="QSUdDy8CgD-3s1N1Uw83-11" value="CodeDeploy" style="points=[[0,0,0],[0.25,0,0],[0.5,0,0],[0.75,0,0],[1,0,0],[0,1,0],[0.25,1,0],[0.5,1,0],[0.75,1,0],[1,1,0],[0,0.25,0],[0,0.5,0],[0,0.75,0],[1,0.25,0],[1,0.5,0],[1,0.75,0]];outlineConnect=0;fontColor=#232F3E;gradientColor=#4D72F3;gradientDirection=north;fillColor=#3334B9;strokeColor=#ffffff;dashed=0;verticalLabelPosition=bottom;verticalAlign=top;align=center;html=1;fontSize=12;fontStyle=0;aspect=fixed;shape=mxgraph.aws4.resourceIcon;resIcon=mxgraph.aws4.codedeploy;labelBackgroundColor=#ffffff;" parent="1" vertex="1">
          <mxGeometry x="410" y="440" width="78" height="78" as="geometry" />
        </mxCell>
        <mxCell id="QSUdDy8CgD-3s1N1Uw83-12" value="&lt;pre style=&quot;box-sizing: border-box; border-width: 0px; border-style: solid; border-color: rgb(229, 231, 235); font-size: 9px; margin-top: 2em; margin-bottom: 2em; overflow-x: auto; line-height: 1.77778; border-radius: 0.5rem; padding: 1.11111em 1.33333em;&quot;&gt;&lt;code class=&quot;lang-bash&quot; style=&quot;box-sizing: border-box; border-width: 0px; border-style: solid; border-color: rgb(229, 231, 235); font-family: inherit; font-size: 9px; border-radius: 0px; padding: 0px; background-image: initial; background-position: initial; background-size: initial; background-repeat: initial; background-attachment: initial; background-origin: initial; background-clip: initial; line-height: inherit;&quot;&gt;AWSCodeDeployRole&lt;/code&gt;&lt;/pre&gt;" style="outlineConnect=0;gradientColor=none;fillColor=#C7131F;strokeColor=none;dashed=0;verticalLabelPosition=bottom;verticalAlign=top;align=center;html=1;fontSize=9;fontStyle=0;aspect=fixed;pointerEvents=1;shape=mxgraph.aws4.permissions;labelBackgroundColor=#ffffff;" parent="1" vertex="1">
          <mxGeometry x="418" y="720" width="62" height="78" as="geometry" />
        </mxCell>
      </root>
    </mxGraphModel>
  </diagram>
</mxfile>
